<svg width="24" height="35" viewBox="0 0 24 35" fill="none" xmlns="http://www.w3.org/2000/svg">
<path fill-rule="evenodd" clip-rule="evenodd" d="M22.6066 24.5147L13.0607 34.0607C12.4749 34.6464 11.5251 34.6464 10.9394 34.0607L1.39342 24.5147C0.80763 23.9289 0.80763 22.9792 1.39342 22.3934C1.9792 21.8076 2.92895 21.8076 3.51474 22.3934L10.5 29.3787L10.5 2C10.5 1.17157 11.1716 0.500001 12 0.5C12.8284 0.5 13.5 1.17157 13.5 2L13.5 29.3787L20.4853 22.3934C21.0711 21.8076 22.0208 21.8076 22.6066 22.3934C23.1924 22.9792 23.1924 23.9289 22.6066 24.5147Z" fill="url(#paint0_linear_41_31)"/>
<defs>
<linearGradient id="paint0_linear_41_31" x1="12" y1="2" x2="12" y2="34" gradientUnits="userSpaceOnUse">
<stop stop-color="#002270"/>
<stop offset="1" stop-color="#E96C01"/>
</linearGradient>
</defs>
</svg>
