<svg width="55" height="55" viewBox="0 0 55 55" fill="none" xmlns="http://www.w3.org/2000/svg">
<path d="M18.3334 6.875C13.2688 6.875 9.16669 10.9771 9.16669 16.0417V32.0833C9.16669 34.6042 11.2292 36.6667 13.75 36.6667H20.625V45.8333C20.625 48.3542 22.6875 50.4167 25.2084 50.4167H29.7917C32.3125 50.4167 34.375 48.3542 34.375 45.8333V36.6667H41.25C43.7709 36.6667 45.8334 34.6042 45.8334 32.0833V6.875H18.3334ZM18.3334 11.4583H27.5V16.0417H32.0834V11.4583H34.375V20.625H38.9584V11.4583H41.25V22.9167H13.75V16.0417C13.75 13.5208 15.8125 11.4583 18.3334 11.4583ZM13.75 32.0833V27.5H41.25V32.0833H13.75Z" fill="white"/>
</svg>
