<svg width="55" height="55" viewBox="0 0 55 55" fill="none" xmlns="http://www.w3.org/2000/svg">
<path d="M43.5417 33.2292C43.5417 33.2292 48.125 38.2021 48.125 41.25C48.125 42.4656 47.6421 43.6314 46.7826 44.4909C45.923 45.3504 44.7573 45.8333 43.5417 45.8333C42.3261 45.8333 41.1603 45.3504 40.3008 44.4909C39.4412 43.6314 38.9583 42.4656 38.9583 41.25C38.9583 38.2021 43.5417 33.2292 43.5417 33.2292ZM11.4583 41.25V20.625C10.2428 20.625 9.07698 20.1421 8.21744 19.2826C7.3579 18.423 6.87501 17.2572 6.87501 16.0417C6.87501 14.8261 7.3579 13.6603 8.21744 12.8008C9.07698 11.9412 10.2428 11.4583 11.4583 11.4583V9.16667C11.4583 7.95109 11.9412 6.7853 12.8008 5.92576C13.6603 5.06622 14.8261 4.58333 16.0417 4.58333H20.625C21.8406 4.58333 23.0064 5.06622 23.8659 5.92576C24.7255 6.7853 25.2083 7.95109 25.2083 9.16667V11.4583H43.5417C44.7573 11.4583 45.923 11.9412 46.7826 12.8008C47.6421 13.6603 48.125 14.8261 48.125 16.0417V20.625V25.2083C48.7328 25.2083 49.3157 25.4498 49.7455 25.8795C50.1752 26.3093 50.4167 26.8922 50.4167 27.5C50.4167 28.1078 50.1752 28.6907 49.7455 29.1205C49.3157 29.5502 48.7328 29.7917 48.125 29.7917H38.9583C38.3506 29.7917 37.7677 29.5502 37.3379 29.1205C36.9081 28.6907 36.6667 28.1078 36.6667 27.5C36.6667 26.8922 36.9081 26.3093 37.3379 25.8795C37.7677 25.4498 38.3506 25.2083 38.9583 25.2083V20.625H25.2083V41.25H27.5C28.7156 41.25 29.8814 41.7329 30.7409 42.5924C31.6005 43.452 32.0833 44.6178 32.0833 45.8333V50.4167H4.58334V45.8333C4.58334 44.6178 5.06623 43.452 5.92577 42.5924C6.78531 41.7329 7.9511 41.25 9.16668 41.25H11.4583Z" fill="white"/>
</svg>
