<svg width="30" height="30" viewBox="0 0 30 30" fill="none" xmlns="http://www.w3.org/2000/svg">
<path d="M3.63095 8.47228C3.63095 7.80384 4.17283 7.26196 4.84127 7.26196H24.2063C24.8748 7.26196 25.4167 7.80384 25.4167 8.47228C25.4167 9.14072 24.8748 9.6826 24.2063 9.6826H4.84127C4.17283 9.6826 3.63095 9.14072 3.63095 8.47228ZM3.63095 14.5239C3.63095 13.8554 4.17283 13.3136 4.84127 13.3136H24.2063C24.8748 13.3136 25.4167 13.8554 25.4167 14.5239C25.4167 15.1923 24.8748 15.7342 24.2063 15.7342H4.84127C4.17283 15.7342 3.63095 15.1923 3.63095 14.5239ZM3.63095 20.5755C3.63095 19.907 4.17283 19.3651 4.84127 19.3651H24.2063C24.8748 19.3651 25.4167 19.907 25.4167 20.5755C25.4167 21.2439 24.8748 21.7858 24.2063 21.7858H4.84127C4.17283 21.7858 3.63095 21.2439 3.63095 20.5755Z" fill="url(#paint0_linear_39_191)"/>
<defs>
<linearGradient id="paint0_linear_39_191" x1="14.5238" y1="7.26196" x2="14.5238" y2="21.7858" gradientUnits="userSpaceOnUse">
<stop stop-color="#002270"/>
<stop offset="1" stop-color="#E96C01"/>
</linearGradient>
</defs>
</svg>
