<svg width="229" height="66" viewBox="0 0 229 66" fill="none" xmlns="http://www.w3.org/2000/svg">
<rect width="228.073" height="66" rx="10" fill="white"/>
<path d="M30.4144 48.2254L29.9184 47.8947V48.4909V49.9014H29.1152V47.9144V47.761L28.9955 47.6652L27.5542 46.5122L27.0358 46.0975V46.7613V48.7484H25.6561V45.6083V45.2892H25.337H22.7427H22.1929L22.4657 45.7666L23.479 47.5399L22.8211 48.0333L21.8551 46.5843L21.668 46.3037L21.3982 46.5061L20.2452 47.3709L20.1175 47.4666V47.6261V48.4909V48.6442L20.2373 48.74L22.8415 50.8234L22.1255 51.5394L20.6136 50.5315L20.1175 50.2008V50.797V52.2383V52.3877L20.2323 52.4834L21.6935 53.701L21.2384 54.1561L20.291 53.6825L19.8293 53.4516V53.9678V56.5314H18.7378V53.9678V53.4966L18.3003 53.6716L17.1732 54.1224L17.0608 53.7853L18.623 52.4834L18.7378 52.3877V52.2383V50.797V50.2807L18.2761 50.5116L16.7229 51.2882L16.0571 50.7888L18.6181 48.74L18.7378 48.6442V48.4909V47.6261V47.4666L18.6102 47.3709L17.4572 46.5061L17.1873 46.3037L17.0003 46.5843L16.0343 48.0333L15.3764 47.5399L16.3897 45.7666L16.6625 45.2892H16.1127H13.8066H13.4875V45.6083V48.7484H12.1079V46.7613V46.1978L11.6246 46.4877L10.1833 47.3525L10.0284 47.4455V47.6261V49.9014H9.22525V48.4909V47.827L8.70687 48.2417L7.48857 49.2164L7.37036 49.0982L13.339 44.4861H17.1225L19.3333 46.9733L19.5582 47.2262L19.7974 46.9869L22.2983 44.4861H25.5237L32.0505 49.1092L31.9263 49.2334L30.4144 48.2254Z" fill="#E96C01" stroke="#E96C01" stroke-width="0.638123"/>
<path d="M25.5141 14.136C28.4508 17.1588 31.968 21.9536 34.0267 27.4717C36.2834 33.52 36.7772 40.4015 32.8854 46.7842L31.543 45.8629L32.8084 43.9768L32.9714 43.734L32.7436 43.5506L31.6766 42.6913L31.4127 42.4788L31.2164 42.7549L29.8727 44.6449L28.9624 44.0075L30.4417 42.0585L30.626 41.8157L30.3918 41.6205L29.1028 40.5464L28.8528 40.338L28.6494 40.5922L27.1156 42.5094L25.3678 41.3158V40.9386H27.6431H27.9621V40.6195V38.8581V38.539H27.6431H25.4602L25.617 37.9292L26.7309 37.1354L28.27 38.856L28.4646 39.0734L28.6985 38.8991L30.1398 37.8249L30.4339 37.6058L30.1761 37.3449L28.5953 35.7445L29.5173 35.3493L31.5124 36.5679L31.7599 36.7191L31.9339 36.487L32.7987 35.334L33.011 35.051L32.7076 34.869L31.7647 34.3032L33.5509 33.4101L33.8677 33.2518L33.6773 32.9532L32.8125 31.5972L32.6368 31.3217L32.3655 31.504L30.8447 32.5259V31.3952V31.0761H30.5257H29.0844H28.7653V31.3952V33.7735L27.9139 34.1141L27.6719 31.9365L27.6358 31.6118L27.3121 31.6555L25.6335 31.8822L25.3338 31.9227L25.3581 32.2241L25.5747 34.9111L23.1217 35.647L21.8796 34.4049C23.5742 33.6932 25.5475 31.932 26.5843 28.7631C27.6524 25.4985 27.7226 20.7582 25.5141 14.136Z" fill="#E96B00" stroke="#E96B00" stroke-width="0.638123"/>
<path d="M7.407 45.8773L6.20325 46.7801C3.56098 42.779 3.31719 37.9911 4.09348 33.5938C4.88573 29.106 6.73388 25.0686 8.11002 22.7868C14.0253 14.96 13.1409 7.19321 11.8977 3.45703C24.3587 12.8959 25.2488 22.8863 24.1653 26.6786L24.1652 26.6785L24.1626 26.6888C23.59 28.9794 22.0104 30.0333 21.0438 30.3802V29.2044L22.6793 27.5683L22.8418 27.4058L22.7391 27.2002L22.1632 26.0471L21.9653 25.6509L21.6522 25.9641L21.0438 26.5725V24.4601V24.1411H20.7248H18.9952H18.6761V24.4601V26.5202L18.1779 25.9746L17.8796 25.6479L17.6638 26.034L17.0193 27.1871L16.9027 27.3957L17.0701 27.5662L18.6761 29.2027V29.9638L17.1357 29.0835L16.8911 28.9438L16.7221 29.1691L15.8573 30.3222L15.628 30.628L15.9699 30.799L18.6761 32.1521V33.2912L17.5688 34.7909L16.3994 32.3916L16.2582 32.1019L15.9699 32.2461L14.8169 32.8226L14.5315 32.9653L14.6742 33.2506L15.8846 35.6715H14.4945L13.971 35.2551L14.1253 31.3911L14.1386 31.0593H13.8065H12.3652H12.0694L12.0471 31.3543L11.8575 33.8611L10.9547 33.4749V30.8019V30.4828H10.6356H9.19434H8.87528V30.8019V32.2491L7.05791 31.1082L6.79383 30.9424L6.62201 31.2026L5.8606 32.3556L5.67416 32.6379L5.96692 32.8075L7.8558 33.9017L6.72712 34.5621L6.41839 34.7428L6.63301 35.0289L7.49779 36.182L7.67511 36.4184L7.9244 36.2597L9.5595 35.2187L10.731 36.0047L9.00326 37.2968L8.73327 37.4987L8.94973 37.7572L9.81451 38.7897L10.009 39.022L10.251 38.8398L12.5818 37.0847L13.8149 37.9162L13.9744 38.5541H11.5004H11.1814V38.8732V40.6027V40.9218H11.5004H14.064V41.2868L12.0055 42.5208L10.6752 40.8104L10.4891 40.571L10.2406 40.7448L9.01152 41.6041L8.74172 41.7927L8.9387 42.0565L10.1913 43.7338L9.25964 44.4269L8.00885 42.749L7.83523 42.5161L7.58712 42.6672L6.17576 43.5265L5.88526 43.7034L6.0803 43.982L7.407 45.8773Z" fill="#002270" stroke="#002270" stroke-width="0.638123"/>
<path d="M21.0351 37.2551L19.5934 34.6655L18.1518 37.2551H15.4487L16.2639 39.6625L15.4487 42.4927H17.9183L19.5934 44.839L21.5027 42.4927H23.7382L23.1571 39.6625L23.7382 37.2551H21.0351Z" fill="#F7C654" stroke="#F7C654" stroke-width="0.638123"/>
<path fill-rule="evenodd" clip-rule="evenodd" d="M25.0182 58.4724C25.0182 57.3477 25.9299 56.436 27.0546 56.436H220.8C221.925 56.436 222.836 57.3477 222.836 58.4724C222.836 59.5971 221.925 60.5088 220.8 60.5088H27.0546C25.9299 60.5088 25.0182 59.5971 25.0182 58.4724Z" fill="url(#paint0_linear_47_37)"/>
<path d="M46.2369 16.4409L51.0181 29.9409L55.7738 16.4409H60.8108V35.0546H56.9627V29.9665L57.3463 21.1838L52.3221 35.0546H49.6886L44.6772 21.1966L45.0608 29.9665V35.0546H41.2255V16.4409H46.2369ZM63.342 28.0105C63.342 26.6384 63.6062 25.4154 64.1346 24.3415C64.663 23.2676 65.4215 22.4367 66.4102 21.8486C67.4073 21.2605 68.5622 20.9665 69.8747 20.9665C71.7412 20.9665 73.2625 21.5375 74.4386 22.6796C75.6233 23.8216 76.2838 25.3727 76.4201 27.333L76.4457 28.279C76.4457 30.4012 75.8534 32.1057 74.6687 33.3926C73.484 34.671 71.8946 35.3102 69.9002 35.3102C67.9059 35.3102 66.3122 34.671 65.119 33.3926C63.9343 32.1142 63.342 30.3756 63.342 28.1767V28.0105ZM67.0366 28.279C67.0366 29.5915 67.2838 30.5972 67.7781 31.296C68.2724 31.9864 68.9798 32.3316 69.9002 32.3316C70.7951 32.3316 71.494 31.9906 71.9968 31.3088C72.4997 30.6185 72.7511 29.5191 72.7511 28.0105C72.7511 26.7236 72.4997 25.7264 71.9968 25.0191C71.494 24.3117 70.7866 23.958 69.8747 23.958C68.9713 23.958 68.2724 24.3117 67.7781 25.0191C67.2838 25.7179 67.0366 26.8046 67.0366 28.279ZM91.173 28.2662C91.173 30.3969 90.6872 32.1057 89.7156 33.3926C88.7525 34.671 87.4485 35.3102 85.8036 35.3102C84.4059 35.3102 83.2767 34.8245 82.4159 33.8529V40.3727H78.7213V21.2222H82.1474L82.2752 22.5773C83.1701 21.5034 84.3377 20.9665 85.7781 20.9665C87.4826 20.9665 88.8079 21.5972 89.7539 22.8585C90.7 24.1199 91.173 25.8585 91.173 28.0745V28.2662ZM87.4784 27.9977C87.4784 26.7108 87.2483 25.7179 86.788 25.0191C86.3363 24.3202 85.6758 23.9708 84.8065 23.9708C83.6474 23.9708 82.8505 24.4139 82.4159 25.3003V30.9637C82.8676 31.8756 83.673 32.3316 84.8321 32.3316C86.5963 32.3316 87.4784 30.887 87.4784 27.9977ZM101.247 24.6867C100.744 24.6185 100.301 24.5844 99.9173 24.5844C98.5196 24.5844 97.6034 25.0574 97.1687 26.0034V35.0546H93.4741V21.2222H96.9642L97.0664 22.8713C97.8079 21.6014 98.8349 20.9665 100.147 20.9665C100.556 20.9665 100.94 21.0219 101.298 21.1327L101.247 24.6867ZM102.001 28.0105C102.001 26.6384 102.265 25.4154 102.794 24.3415C103.322 23.2676 104.081 22.4367 105.069 21.8486C106.066 21.2605 107.221 20.9665 108.534 20.9665C110.4 20.9665 111.922 21.5375 113.098 22.6796C114.282 23.8216 114.943 25.3727 115.079 27.333L115.105 28.279C115.105 30.4012 114.512 32.1057 113.328 33.3926C112.143 34.671 110.554 35.3102 108.559 35.3102C106.565 35.3102 104.971 34.671 103.778 33.3926C102.593 32.1142 102.001 30.3756 102.001 28.1767V28.0105ZM105.696 28.279C105.696 29.5915 105.943 30.5972 106.437 31.296C106.931 31.9864 107.639 32.3316 108.559 32.3316C109.454 32.3316 110.153 31.9906 110.656 31.3088C111.159 30.6185 111.41 29.5191 111.41 28.0105C111.41 26.7236 111.159 25.7264 110.656 25.0191C110.153 24.3117 109.446 23.958 108.534 23.958C107.63 23.958 106.931 24.3117 106.437 25.0191C105.943 25.7179 105.696 26.8046 105.696 28.279ZM121.279 35.0546H117.572V21.2222H121.279V35.0546ZM117.355 17.6426C117.355 17.0887 117.538 16.6327 117.905 16.2747C118.28 15.9168 118.787 15.7378 119.426 15.7378C120.056 15.7378 120.559 15.9168 120.934 16.2747C121.309 16.6327 121.497 17.0887 121.497 17.6426C121.497 18.2051 121.305 18.6654 120.922 19.0233C120.547 19.3813 120.048 19.5602 119.426 19.5602C118.804 19.5602 118.301 19.3813 117.917 19.0233C117.542 18.6654 117.355 18.2051 117.355 17.6426ZM127.735 21.2222L127.851 22.8202C128.839 21.5844 130.164 20.9665 131.826 20.9665C133.292 20.9665 134.383 21.3969 135.099 22.2577C135.815 23.1185 136.181 24.4054 136.199 26.1185V35.0546H132.504V26.208C132.504 25.4239 132.333 24.8571 131.993 24.5077C131.652 24.1497 131.085 23.9708 130.292 23.9708C129.253 23.9708 128.473 24.4139 127.953 25.3003V35.0546H124.258V21.2222H127.735ZM144.764 32.3316C145.446 32.3316 146 32.1441 146.426 31.7691C146.852 31.3941 147.074 30.8955 147.091 30.2733H150.555C150.547 31.2108 150.291 32.0716 149.788 32.8557C149.285 33.6313 148.595 34.2364 147.717 34.671C146.848 35.0972 145.885 35.3102 144.828 35.3102C142.851 35.3102 141.291 34.6838 140.149 33.431C139.007 32.1696 138.436 30.431 138.436 28.2151V27.9722C138.436 25.8415 139.003 24.1412 140.136 22.8713C141.27 21.6014 142.825 20.9665 144.802 20.9665C146.532 20.9665 147.917 21.4608 148.957 22.4495C150.005 23.4296 150.538 24.7378 150.555 26.3742H147.091C147.074 25.6583 146.852 25.0787 146.426 24.6355C146 24.1838 145.437 23.958 144.738 23.958C143.878 23.958 143.226 24.2733 142.782 24.904C142.348 25.5262 142.13 26.5404 142.13 27.9466V28.3301C142.13 29.7534 142.348 30.7762 142.782 31.3983C143.217 32.0205 143.878 32.3316 144.764 32.3316ZM160.68 35.0546C160.51 34.7222 160.386 34.3088 160.309 33.8145C159.414 34.8117 158.251 35.3102 156.819 35.3102C155.464 35.3102 154.339 34.9182 153.444 34.1341C152.558 33.35 152.115 32.3614 152.115 31.1682C152.115 29.7023 152.656 28.5773 153.738 27.7932C154.829 27.0091 156.402 26.6128 158.456 26.6043H160.156V25.8117C160.156 25.1725 159.99 24.6611 159.657 24.2776C159.333 23.8941 158.818 23.7023 158.11 23.7023C157.488 23.7023 156.998 23.8514 156.64 24.1497C156.291 24.448 156.116 24.8571 156.116 25.377H152.422C152.422 24.5759 152.669 23.8344 153.163 23.1526C153.657 22.4708 154.356 21.9381 155.26 21.5546C156.163 21.1625 157.177 20.9665 158.302 20.9665C160.007 20.9665 161.358 21.3969 162.355 22.2577C163.36 23.11 163.863 24.3117 163.863 25.8628V31.8585C163.872 33.171 164.055 34.1639 164.413 34.8372V35.0546H160.68ZM157.625 32.485C158.17 32.485 158.673 32.3656 159.133 32.127C159.593 31.8799 159.934 31.5517 160.156 31.1426V28.7648H158.775C156.926 28.7648 155.941 29.404 155.822 30.6824L155.809 30.8997C155.809 31.36 155.971 31.7392 156.295 32.0375C156.619 32.3358 157.062 32.485 157.625 32.485ZM188.076 28.8543C187.931 30.8571 187.19 32.4338 185.852 33.5844C184.522 34.735 182.767 35.3102 180.585 35.3102C178.199 35.3102 176.319 34.5091 174.947 32.9068C173.583 31.296 172.902 29.0887 172.902 26.2847V25.1469C172.902 23.3571 173.217 21.7804 173.848 20.4168C174.478 19.0531 175.377 18.0091 176.545 17.2847C177.721 16.5517 179.085 16.1853 180.636 16.1853C182.784 16.1853 184.514 16.7605 185.826 17.9111C187.139 19.0617 187.897 20.6767 188.102 22.7563H184.267C184.173 21.5546 183.836 20.6852 183.257 20.1483C182.686 19.6029 181.812 19.3301 180.636 19.3301C179.358 19.3301 178.399 19.7904 177.76 20.7108C177.129 21.6227 176.805 23.0418 176.788 24.9679V26.3742C176.788 28.3855 177.091 29.8557 177.696 30.7847C178.309 31.7137 179.272 32.1781 180.585 32.1781C181.77 32.1781 182.652 31.9097 183.231 31.3727C183.819 30.8273 184.156 29.9878 184.241 28.8543H188.076ZM190.544 33.2392C190.544 32.6512 190.74 32.1739 191.132 31.8074C191.532 31.4409 192.031 31.2577 192.627 31.2577C193.233 31.2577 193.731 31.4409 194.123 31.8074C194.524 32.1739 194.724 32.6512 194.724 33.2392C194.724 33.8188 194.528 34.2918 194.136 34.6583C193.744 35.0162 193.241 35.1952 192.627 35.1952C192.022 35.1952 191.524 35.0162 191.132 34.6583C190.74 34.2918 190.544 33.8188 190.544 33.2392ZM208.723 31.2193H201.998L200.72 35.0546H196.642L203.571 16.4409H207.125L214.092 35.0546H210.014L208.723 31.2193ZM203.034 28.1128H207.687L205.348 21.1455L203.034 28.1128Z" fill="#002270"/>
<path d="M42.9909 50.2122C42.9909 49.8914 42.8782 49.6382 42.6528 49.4526C42.4275 49.2643 42.0151 49.0867 41.4159 48.9196C40.8167 48.7499 40.3792 48.5657 40.1034 48.3668C39.711 48.0857 39.5148 47.7172 39.5148 47.2611C39.5148 46.8183 39.6964 46.459 40.0597 46.1833C40.4256 45.9049 40.8922 45.7657 41.4597 45.7657C41.8441 45.7657 42.1875 45.8399 42.4898 45.9884C42.7947 46.1369 43.0307 46.3437 43.1977 46.6088C43.3648 46.874 43.4483 47.1696 43.4483 47.4958H42.9551C42.9551 47.1007 42.8199 46.7838 42.5494 46.5452C42.279 46.3039 41.9157 46.1833 41.4597 46.1833C41.0168 46.1833 40.6642 46.2827 40.4017 46.4816C40.1392 46.6778 40.0079 46.935 40.0079 47.2532C40.0079 47.5475 40.1259 47.7874 40.3619 47.973C40.5979 48.1586 40.9758 48.323 41.4954 48.4662C42.0151 48.6068 42.4089 48.7539 42.6767 48.9077C42.9445 49.0588 43.146 49.2405 43.2812 49.4526C43.4165 49.6647 43.4841 49.9153 43.4841 50.2043C43.4841 50.6604 43.3011 51.0263 42.9352 51.302C42.572 51.5778 42.092 51.7157 41.4954 51.7157C41.0871 51.7157 40.7119 51.6427 40.3699 51.4969C40.0305 51.3511 39.772 51.1469 39.5943 50.8844C39.4193 50.6219 39.3318 50.321 39.3318 49.9816H39.821C39.821 50.3899 39.9735 50.7121 40.2784 50.948C40.5833 51.184 40.989 51.302 41.4954 51.302C41.9462 51.302 42.3081 51.2026 42.5812 51.0037C42.8543 50.8049 42.9909 50.541 42.9909 50.2122ZM46.0972 51.7157C45.7312 51.7157 45.3998 51.6255 45.1028 51.4452C44.8085 51.2649 44.5792 51.0143 44.4148 50.6935C44.2504 50.37 44.1682 50.0081 44.1682 49.6077V49.4367C44.1682 49.023 44.2477 48.6505 44.4068 48.3191C44.5686 47.9876 44.7926 47.7278 45.079 47.5395C45.3653 47.3486 45.6756 47.2532 46.0097 47.2532C46.532 47.2532 46.9456 47.4321 47.2506 47.7901C47.5581 48.1454 47.7119 48.6319 47.7119 49.2497V49.5162H44.6415V49.6077C44.6415 50.0956 44.7807 50.5026 45.0591 50.8287C45.3401 51.1522 45.6928 51.3139 46.117 51.3139C46.3716 51.3139 46.5956 51.2675 46.7892 51.1747C46.9854 51.0819 47.1631 50.9335 47.3222 50.7293L47.6204 50.956C47.2704 51.4624 46.7627 51.7157 46.0972 51.7157ZM46.0097 47.6588C45.6517 47.6588 45.3494 47.7901 45.1028 48.0526C44.8589 48.3151 44.7104 48.6677 44.6574 49.1105H47.2386V49.0588C47.2254 48.6452 47.1074 48.3085 46.8847 48.0486C46.6619 47.7888 46.3703 47.6588 46.0097 47.6588ZM50.6273 47.7384C50.5265 47.7198 50.4191 47.7105 50.3051 47.7105C50.0081 47.7105 49.7562 47.7941 49.5494 47.9611C49.3453 48.1255 49.1994 48.3655 49.1119 48.681V51.6361H48.6386V47.3327H49.104L49.1119 48.0168C49.3638 47.5077 49.7682 47.2532 50.325 47.2532C50.4576 47.2532 50.5623 47.2704 50.6392 47.3049L50.6273 47.7384ZM52.7949 50.9799L54.1034 47.3327H54.5926L52.9858 51.6361H52.6L50.9852 47.3327H51.4744L52.7949 50.9799ZM55.9091 51.6361H55.4318V47.3327H55.9091V51.6361ZM55.3483 46.0878C55.3483 45.9977 55.3775 45.9221 55.4358 45.8611C55.4941 45.7975 55.5737 45.7657 55.6744 45.7657C55.7752 45.7657 55.8547 45.7975 55.9131 45.8611C55.974 45.9221 56.0045 45.9977 56.0045 46.0878C56.0045 46.178 55.974 46.2535 55.9131 46.3145C55.8547 46.3755 55.7752 46.406 55.6744 46.406C55.5737 46.406 55.4941 46.3755 55.4358 46.3145C55.3775 46.2535 55.3483 46.178 55.3483 46.0878ZM58.7966 51.3139C59.128 51.3139 59.4051 51.2211 59.6278 51.0355C59.8532 50.8473 59.9752 50.6047 59.9937 50.3077H60.4511C60.4379 50.5702 60.3557 50.8102 60.2045 51.0276C60.0534 51.2424 59.8519 51.4107 59.6 51.5327C59.3508 51.6547 59.0829 51.7157 58.7966 51.7157C58.2318 51.7157 57.7837 51.5194 57.4523 51.127C57.1235 50.7346 56.9591 50.2069 56.9591 49.5441V49.4009C56.9591 48.9766 57.0333 48.6014 57.1818 48.2753C57.3303 47.9492 57.5424 47.6973 57.8182 47.5196C58.0966 47.342 58.4214 47.2532 58.7926 47.2532C59.2646 47.2532 59.653 47.3937 59.9579 47.6747C60.2655 47.9558 60.4299 48.3257 60.4511 48.7844H59.9937C59.9725 48.4477 59.8506 48.1759 59.6278 47.9691C59.4078 47.7622 59.1293 47.6588 58.7926 47.6588C58.3631 47.6588 58.029 47.8139 57.7903 48.1242C57.5543 48.4344 57.4364 48.8693 57.4364 49.4287V49.5679C57.4364 50.1168 57.5543 50.545 57.7903 50.8526C58.029 51.1602 58.3644 51.3139 58.7966 51.3139ZM61.9386 51.6361H61.4614V47.3327H61.9386V51.6361ZM61.3778 46.0878C61.3778 45.9977 61.407 45.9221 61.4653 45.8611C61.5237 45.7975 61.6032 45.7657 61.704 45.7657C61.8047 45.7657 61.8843 45.7975 61.9426 45.8611C62.0036 45.9221 62.0341 45.9977 62.0341 46.0878C62.0341 46.178 62.0036 46.2535 61.9426 46.3145C61.8843 46.3755 61.8047 46.406 61.704 46.406C61.6032 46.406 61.5237 46.3755 61.4653 46.3145C61.407 46.2535 61.3778 46.178 61.3778 46.0878ZM62.9727 49.4208C62.9727 49.0071 63.0523 48.6346 63.2114 48.3032C63.3731 47.9717 63.5998 47.7145 63.8915 47.5316C64.1858 47.346 64.5186 47.2532 64.8898 47.2532C65.4625 47.2532 65.9265 47.4547 66.2818 47.8577C66.6371 48.2581 66.8148 48.7897 66.8148 49.4526V49.552C66.8148 49.9683 66.7339 50.3435 66.5722 50.6776C66.4131 51.009 66.1877 51.2649 65.896 51.4452C65.6043 51.6255 65.2716 51.7157 64.8977 51.7157C64.3276 51.7157 63.8636 51.5155 63.5057 51.1151C63.1504 50.7121 62.9727 50.1791 62.9727 49.5162V49.4208ZM63.45 49.552C63.45 50.0664 63.5826 50.4893 63.8477 50.8208C64.1155 51.1496 64.4655 51.3139 64.8977 51.3139C65.3273 51.3139 65.6746 51.1496 65.9398 50.8208C66.2076 50.4893 66.3415 50.0532 66.3415 49.5122V49.4208C66.3415 49.092 66.2805 48.791 66.1585 48.5179C66.0365 48.2448 65.8655 48.034 65.6454 47.8855C65.4254 47.7344 65.1735 47.6588 64.8898 47.6588C64.4655 47.6588 64.1195 47.8259 63.8517 48.16C63.5839 48.4914 63.45 48.9263 63.45 49.4645V49.552ZM70.3784 50.5424C70.3784 50.3064 70.2829 50.1168 70.092 49.9736C69.9038 49.8304 69.6187 49.7191 69.2369 49.6395C68.8551 49.5573 68.5581 49.4645 68.346 49.3611C68.1365 49.255 67.9801 49.1264 67.8767 48.9753C67.7759 48.8242 67.7256 48.6412 67.7256 48.4264C67.7256 48.0871 67.8674 47.8073 68.1511 47.5872C68.4348 47.3645 68.7981 47.2532 69.2409 47.2532C69.7208 47.2532 70.1053 47.3725 70.3943 47.6111C70.686 47.8471 70.8318 48.156 70.8318 48.5378H70.3545C70.3545 48.2859 70.2485 48.0764 70.0364 47.9094C69.8269 47.7424 69.5617 47.6588 69.2409 47.6588C68.928 47.6588 68.6761 47.7291 68.4852 47.8696C68.297 48.0075 68.2028 48.1878 68.2028 48.4105C68.2028 48.6253 68.2811 48.7924 68.4375 48.9117C68.5966 49.0283 68.8843 49.1357 69.3006 49.2338C69.7195 49.3319 70.0324 49.4367 70.2392 49.548C70.4487 49.6594 70.6038 49.7933 70.7045 49.9497C70.8053 50.1062 70.8557 50.2958 70.8557 50.5185C70.8557 50.8818 70.7085 51.1721 70.4142 51.3895C70.1225 51.6069 69.7407 51.7157 69.2687 51.7157C68.7676 51.7157 68.3606 51.595 68.0477 51.3537C67.7375 51.1098 67.5824 50.8022 67.5824 50.431H68.0597C68.0782 50.7094 68.1949 50.9268 68.4097 51.0833C68.6271 51.2371 68.9134 51.3139 69.2687 51.3139C69.6002 51.3139 69.868 51.241 70.0722 51.0952C70.2763 50.9494 70.3784 50.7651 70.3784 50.5424ZM74.6182 51.6361H74.129V45.8452H74.6182V51.6361ZM76.5352 47.3327L76.5511 48.0685C76.7129 47.8033 76.9144 47.6018 77.1557 47.4639C77.397 47.3234 77.6634 47.2532 77.9551 47.2532C78.4165 47.2532 78.7598 47.3831 78.9852 47.6429C79.2106 47.9028 79.3246 48.2925 79.3273 48.8122V51.6361H78.854V48.8083C78.8513 48.4238 78.7691 48.1374 78.6074 47.9492C78.4483 47.7609 78.1924 47.6668 77.8398 47.6668C77.5454 47.6668 77.2843 47.7596 77.0562 47.9452C76.8309 48.1282 76.6638 48.3761 76.5551 48.6889V51.6361H76.0818V47.3327H76.5352ZM81.3 46.231V47.3327H82.1909V47.7225H81.3V50.5901C81.3 50.8287 81.3424 51.0064 81.4273 51.123C81.5148 51.2397 81.6593 51.298 81.8608 51.298C81.9403 51.298 82.0689 51.2848 82.2466 51.2583L82.2665 51.648C82.1418 51.6931 81.9722 51.7157 81.7574 51.7157C81.4312 51.7157 81.1939 51.6215 81.0454 51.4333C80.897 51.2424 80.8227 50.9626 80.8227 50.5941V47.7225H80.0312V47.3327H80.8227V46.231H81.3ZM84.8437 51.7157C84.4778 51.7157 84.1464 51.6255 83.8494 51.4452C83.5551 51.2649 83.3257 51.0143 83.1614 50.6935C82.997 50.37 82.9148 50.0081 82.9148 49.6077V49.4367C82.9148 49.023 82.9943 48.6505 83.1534 48.3191C83.3151 47.9876 83.5392 47.7278 83.8256 47.5395C84.1119 47.3486 84.4221 47.2532 84.7562 47.2532C85.2786 47.2532 85.6922 47.4321 85.9971 47.7901C86.3047 48.1454 86.4585 48.6319 86.4585 49.2497V49.5162H83.3881V49.6077C83.3881 50.0956 83.5273 50.5026 83.8057 50.8287C84.0867 51.1522 84.4394 51.3139 84.8636 51.3139C85.1182 51.3139 85.3422 51.2675 85.5358 51.1747C85.732 51.0819 85.9096 50.9335 86.0687 50.7293L86.367 50.956C86.017 51.4624 85.5093 51.7157 84.8437 51.7157ZM84.7562 47.6588C84.3983 47.6588 84.096 47.7901 83.8494 48.0526C83.6055 48.3151 83.457 48.6677 83.404 49.1105H85.9852V49.0588C85.972 48.6452 85.854 48.3085 85.6312 48.0486C85.4085 47.7888 85.1168 47.6588 84.7562 47.6588ZM87.1943 49.4446C87.1943 48.7711 87.3428 48.2382 87.6398 47.8458C87.9394 47.4507 88.3451 47.2532 88.8568 47.2532C89.4428 47.2532 89.8882 47.4865 90.1932 47.9532L90.217 47.3327H90.6625V51.5486C90.6625 52.1028 90.5074 52.5416 90.1971 52.8651C89.8869 53.1886 89.4667 53.3503 88.9364 53.3503C88.6367 53.3503 88.3504 53.2827 88.0773 53.1475C87.8068 53.0149 87.5934 52.8372 87.4369 52.6145L87.7034 52.3282C88.0401 52.7418 88.4405 52.9486 88.9045 52.9486C89.3023 52.9486 89.6125 52.8306 89.8352 52.5946C90.0579 52.3613 90.1733 52.0365 90.1812 51.6202V51.0793C89.8763 51.5035 89.4322 51.7157 88.8489 51.7157C88.3504 51.7157 87.95 51.5168 87.6477 51.1191C87.3454 50.7213 87.1943 50.1844 87.1943 49.5083V49.4446ZM87.6756 49.5282C87.6756 50.077 87.7856 50.5105 88.0057 50.8287C88.2257 51.1443 88.536 51.302 88.9364 51.302C89.5223 51.302 89.9373 51.0395 90.1812 50.5145V48.5139C90.0699 48.2382 89.9095 48.0287 89.7 47.8855C89.4905 47.7397 89.2386 47.6668 88.9443 47.6668C88.5439 47.6668 88.2324 47.8246 88.0096 48.1401C87.7869 48.453 87.6756 48.9157 87.6756 49.5282ZM93.892 47.7384C93.7913 47.7198 93.6839 47.7105 93.5699 47.7105C93.2729 47.7105 93.021 47.7941 92.8142 47.9611C92.61 48.1255 92.4642 48.3655 92.3767 48.681V51.6361H91.9034V47.3327H92.3687L92.3767 48.0168C92.6286 47.5077 93.0329 47.2532 93.5898 47.2532C93.7223 47.2532 93.8271 47.2704 93.904 47.3049L93.892 47.7384ZM97.2051 51.6361C97.1574 51.5009 97.1269 51.3007 97.1136 51.0355C96.9466 51.253 96.7331 51.4213 96.4733 51.5407C96.2161 51.6573 95.943 51.7157 95.654 51.7157C95.2403 51.7157 94.9049 51.6003 94.6477 51.3696C94.3932 51.1389 94.2659 50.8473 94.2659 50.4946C94.2659 50.0757 94.4396 49.7443 94.7869 49.5003C95.1369 49.2564 95.6235 49.1344 96.2466 49.1344H97.1097V48.6452C97.1097 48.3376 97.0142 48.0963 96.8233 47.9213C96.635 47.7437 96.3593 47.6549 95.996 47.6549C95.6646 47.6549 95.3901 47.7397 95.1727 47.9094C94.9553 48.0791 94.8466 48.2833 94.8466 48.5219L94.3693 48.5179C94.3693 48.1759 94.5284 47.8802 94.8466 47.631C95.1648 47.3791 95.5559 47.2532 96.0199 47.2532C96.4998 47.2532 96.8776 47.3738 97.1534 47.6151C97.4318 47.8537 97.575 48.1878 97.5829 48.6174V50.6537C97.5829 51.07 97.6267 51.3816 97.7142 51.5884V51.6361H97.2051ZM95.7097 51.2941C96.0278 51.2941 96.3115 51.2172 96.5608 51.0634C96.8127 50.9096 96.9956 50.7041 97.1097 50.4469V49.5003H96.2585C95.7839 49.5056 95.4127 49.5931 95.1449 49.7628C94.8771 49.9299 94.7432 50.1605 94.7432 50.4549C94.7432 50.6961 94.832 50.8963 95.0097 51.0554C95.19 51.2145 95.4233 51.2941 95.7097 51.2941ZM99.3886 51.6361H98.9114V45.527H99.3886V51.6361ZM102.352 51.7157C101.986 51.7157 101.654 51.6255 101.357 51.4452C101.063 51.2649 100.834 51.0143 100.669 50.6935C100.505 50.37 100.423 50.0081 100.423 49.6077V49.4367C100.423 49.023 100.502 48.6505 100.661 48.3191C100.823 47.9876 101.047 47.7278 101.334 47.5395C101.62 47.3486 101.93 47.2532 102.264 47.2532C102.787 47.2532 103.2 47.4321 103.505 47.7901C103.813 48.1454 103.966 48.6319 103.966 49.2497V49.5162H100.896V49.6077C100.896 50.0956 101.035 50.5026 101.314 50.8287C101.595 51.1522 101.947 51.3139 102.372 51.3139C102.626 51.3139 102.85 51.2675 103.044 51.1747C103.24 51.0819 103.418 50.9335 103.577 50.7293L103.875 50.956C103.525 51.4624 103.017 51.7157 102.352 51.7157ZM102.264 47.6588C101.906 47.6588 101.604 47.7901 101.357 48.0526C101.113 48.3151 100.965 48.6677 100.912 49.1105H103.493V49.0588C103.48 48.6452 103.362 48.3085 103.139 48.0486C102.916 47.7888 102.625 47.6588 102.264 47.6588ZM107.47 50.5424C107.47 50.3064 107.375 50.1168 107.184 49.9736C106.996 49.8304 106.711 49.7191 106.329 49.6395C105.947 49.5573 105.65 49.4645 105.438 49.3611C105.229 49.255 105.072 49.1264 104.969 48.9753C104.868 48.8242 104.818 48.6412 104.818 48.4264C104.818 48.0871 104.959 47.8073 105.243 47.5872C105.527 47.3645 105.89 47.2532 106.333 47.2532C106.813 47.2532 107.197 47.3725 107.486 47.6111C107.778 47.8471 107.924 48.156 107.924 48.5378H107.447C107.447 48.2859 107.341 48.0764 107.128 47.9094C106.919 47.7424 106.654 47.6588 106.333 47.6588C106.02 47.6588 105.768 47.7291 105.577 47.8696C105.389 48.0075 105.295 48.1878 105.295 48.4105C105.295 48.6253 105.373 48.7924 105.53 48.9117C105.689 49.0283 105.976 49.1357 106.393 49.2338C106.812 49.3319 107.124 49.4367 107.331 49.548C107.541 49.6594 107.696 49.7933 107.797 49.9497C107.897 50.1062 107.948 50.2958 107.948 50.5185C107.948 50.8818 107.801 51.1721 107.506 51.3895C107.215 51.6069 106.833 51.7157 106.361 51.7157C105.86 51.7157 105.453 51.595 105.14 51.3537C104.83 51.1098 104.674 50.8022 104.674 50.431H105.152C105.17 50.7094 105.287 50.9268 105.502 51.0833C105.719 51.2371 106.005 51.3139 106.361 51.3139C106.692 51.3139 106.96 51.241 107.164 51.0952C107.368 50.9494 107.47 50.7651 107.47 50.5424Z" fill="#002270"/>
<defs>
<linearGradient id="paint0_linear_47_37" x1="26.7636" y1="60.5079" x2="220.8" y2="60.5079" gradientUnits="userSpaceOnUse">
<stop stop-color="#002270"/>
<stop offset="0.950054" stop-color="#FA6D1E"/>
</linearGradient>
</defs>
</svg>
