<svg width="75" height="75" viewBox="0 0 75 75" fill="none" xmlns="http://www.w3.org/2000/svg">
<path d="M64.9688 43.5938L57.6875 45.5312L51.4375 42V33L57.6875 29.4688L64.9688 31.4062L66.5938 25.375L61.0625 23.9062L62.5 18.375L56.4688 16.75L54.5313 24.0312L48.2813 27.5625L40.625 23.0625V16L45.9688 10.6563L41.5313 6.25L37.5 10.2812L33.4688 6.25L29.0313 10.6563L34.375 16V23.0625L26.5625 27.5625L20.3125 24.0312L18.5 16.75L12.5 18.375L13.9687 23.9062L8.4375 25.375L10.0625 31.4062L17.3438 29.4688L23.5938 33V42.0312L17.3438 45.5625L10.0625 43.625L8.4375 49.6562L13.9687 51.125L12.5 56.625L18.5312 58.25L20.4688 50.9688L26.7188 47.4375L34.375 51.9375V59L29.0313 64.3438L33.4688 68.75L37.5 64.7187L41.5313 68.75L45.9375 64.3438L40.625 59V51.9375L48.4375 47.4062L54.6875 50.9375L56.625 58.2187L62.5 56.625L61.0313 51.0938L66.5625 49.625L64.9688 43.5938ZM29.6875 33L37.5 28.4687L45.3125 33V42L37.5 46.5312L29.6875 42V33Z" fill="white"/>
</svg>
