<svg width="26" height="44" viewBox="0 0 26 44" fill="none" xmlns="http://www.w3.org/2000/svg">
<path d="M21.5729 35.7921L21.2048 35.5467V35.9891V37.036H20.6087V35.5613V35.4475L20.5198 35.3764L19.4501 34.5206L19.0654 34.2128V34.7055V36.1802H18.0414V33.8497V33.6129H17.8046H15.8791H15.4711L15.6735 33.9672L16.4256 35.2833L15.9373 35.6495L15.2204 34.5741L15.0815 34.3659L14.8813 34.5161L14.0255 35.1579L13.9308 35.2289V35.3473V35.9891V36.103L14.0197 36.1741L15.9525 37.7203L15.4211 38.2517L14.2989 37.5036L13.9308 37.2582V37.7007V38.7704V38.8813L14.016 38.9523L15.1004 39.856L14.7627 40.1938L14.0596 39.8422L13.7169 39.6709V40.054V41.9566H12.9068V40.054V39.7043L12.5821 39.8342L11.7455 40.1688L11.6621 39.9185L12.8216 38.9523L12.9068 38.8813V38.7704V37.7007V37.3175L12.5641 37.4889L11.4114 38.0652L10.9172 37.6946L12.8179 36.1741L12.9068 36.103V35.9891V35.3473V35.2289L12.8121 35.1579L11.9563 34.5161L11.7561 34.3659L11.6172 34.5741L10.9003 35.6495L10.412 35.2833L11.1641 33.9672L11.3665 33.6129H10.9585H9.24695H9.01015V33.8497V36.1802H7.98617V34.7055V34.2873L7.62753 34.5024L6.55783 35.1443L6.44286 35.2132V35.3473V37.036H5.84675V35.9891V35.4965L5.46202 35.8042L4.55782 36.5276L4.47009 36.4399L8.8999 33.0168H11.7079L13.3488 34.8628L13.5156 35.0505L13.6932 34.8729L15.5493 33.0168H17.9432L22.7872 36.448L22.6951 36.5402L21.5729 35.7921Z" fill="#E96C01" stroke="#E96C01" stroke-width="0.473603"/>
<path d="M17.9361 10.4916C20.1156 12.735 22.726 16.2936 24.254 20.389C25.9288 24.878 26.2954 29.9853 23.4069 34.7224L22.4106 34.0387L23.3498 32.6388L23.4707 32.4586L23.3017 32.3225L22.5098 31.6847L22.3139 31.527L22.1682 31.7319L21.1709 33.1347L20.4954 32.6616L21.5932 31.2151L21.73 31.0349L21.5562 30.89L20.5996 30.0928L20.414 29.9382L20.2631 30.1268L19.1247 31.5498L17.8275 30.6639V30.3839H19.5162H19.753V30.1471V28.8398V28.603H19.5162H17.8961L18.0124 28.1504L18.8391 27.5612L19.9815 28.8382L20.1259 28.9996L20.2995 28.8702L21.3692 28.073L21.5874 27.9104L21.3961 27.7167L20.2229 26.529L20.9072 26.2357L22.3879 27.1401L22.5716 27.2523L22.7008 27.0801L23.3426 26.2243L23.5001 26.0143L23.275 25.8792L22.5752 25.4593L23.9009 24.7964L24.1359 24.6789L23.9946 24.4573L23.3528 23.4509L23.2224 23.2464L23.0211 23.3817L21.8924 24.1402V23.301V23.0642H21.6556H20.5859H20.3491V23.301V25.0661L19.7171 25.3189L19.5376 23.7027L19.5108 23.4618L19.2705 23.4942L18.0247 23.6625L17.8023 23.6925L17.8203 23.9162L17.9811 25.9104L16.1605 26.4566L15.2386 25.5347C16.4963 25.0065 17.9609 23.6994 18.7303 21.3475C19.5231 18.9246 19.5752 15.4064 17.9361 10.4916Z" fill="#E96B00" stroke="#E96B00" stroke-width="0.473603"/>
<path d="M15.0698 19.2701L14.6183 19.7216V18.1539V17.9171H14.3815H13.0978H12.861V18.1539V19.6828L12.4913 19.2779L12.2699 19.0355L12.1097 19.322L11.6314 20.1778L11.5448 20.3326L11.6691 20.4592L12.861 21.6738V22.2386L11.7177 21.5853L11.5362 21.4816L11.4108 21.6488L10.769 22.5046L10.5987 22.7316L10.8525 22.8585L12.861 23.8627V24.7082L12.0392 25.8212L11.1713 24.0405L11.0665 23.8255L10.8525 23.9325L9.99677 24.3604L9.78496 24.4663L9.89086 24.6781L10.7892 26.4748H9.75749L9.36901 26.1657L9.48351 23.298L9.49335 23.0517H9.2469H8.1772H7.95763L7.94107 23.2707L7.80036 25.1312L7.13035 24.8445V22.8606V22.6238H6.89355H5.82385H5.58704V22.8606V23.9347L4.23822 23.088L4.04223 22.9649L3.91471 23.158L3.3496 24.0138L3.21123 24.2233L3.42851 24.3492L4.83041 25.1612L3.99272 25.6514L3.76359 25.7855L3.92288 25.9979L4.5647 26.8537L4.6963 27.0291L4.88132 26.9113L6.09485 26.1387L6.96436 26.7221L5.68203 27.681L5.48165 27.8309L5.6423 28.0227L6.28412 28.7891L6.42849 28.9615L6.60811 28.8262L8.33798 27.5236L9.25314 28.1408L9.37149 28.6142H7.53537H7.29857V28.851V30.1346V30.3714H7.53537H9.43798V30.6423L7.91024 31.5582L6.92293 30.2888L6.78477 30.1111L6.60033 30.2401L5.68816 30.8778L5.48792 31.0178L5.63411 31.2136L6.56376 32.4585L5.87231 32.9729L4.94399 31.7276L4.81514 31.5547L4.63099 31.6669L3.58351 32.3046L3.36791 32.4359L3.51266 32.6427L4.49731 34.0493L3.60392 34.7194C1.64288 31.7498 1.46193 28.1963 2.03808 24.9327C2.62608 21.602 3.99774 18.6055 5.01908 16.912C9.38193 11.1393 8.76089 5.41059 7.84743 2.61802C14.4108 7.96045 17.5203 13.4125 16.9286 19.8254C16.6799 20.8075 16.183 21.6983 15.661 22.3611C15.3987 22.6942 15.1333 22.9654 14.895 23.1598C14.7936 23.2426 14.7008 23.3083 14.6183 23.3587V21.675L15.8321 20.4608L15.9527 20.3401L15.8765 20.1875L15.4491 19.3318L15.3022 19.0377L15.0698 19.2701Z" fill="#002270" stroke="#002270" stroke-width="0.473603"/>
<path d="M14.6118 27.6499L13.5419 25.7279L12.4719 27.6499H10.4657L11.0708 29.4366L10.4657 31.5371H12.2986L13.5419 33.2785L14.9589 31.5371H16.618L16.1868 29.4366L16.618 27.6499H14.6118Z" fill="#F7C654" stroke="#F7C654" stroke-width="0.473603"/>
</svg>
