<svg width="55" height="55" viewBox="0 0 55 55" fill="none" xmlns="http://www.w3.org/2000/svg">
<path d="M50.6688 49.1792L5.4771 3.96458L2.54376 6.875L17.5313 21.8625C15.4458 25.2771 13.75 28.9896 13.75 32.6104C13.75 40.1958 19.9146 46.3604 27.5 46.3604C31.4875 46.3604 35.0625 44.6875 37.5833 41.9146L47.7583 52.0896L50.6688 49.1792ZM27.5 41.7771C22.4125 41.7771 18.3333 37.6979 18.3333 32.6104C18.3333 30.9375 19.4792 28.1187 20.9458 25.2771L34.375 38.6833C32.6792 40.5854 30.25 41.7771 27.5 41.7771ZM25.5292 18.1958L22.2521 14.8958C24.2229 12.3292 25.7813 10.5646 25.7813 10.5646L27.5 8.63958L29.2188 10.5646C29.2188 10.5646 32.1521 13.8875 35.1083 18.1958C38.0646 22.5042 41.25 27.6604 41.25 32.6104C41.25 33.0229 41.25 33.4354 41.1813 33.8479L35.4292 28.0958C34.375 25.7354 32.9313 23.0771 31.35 20.7854C29.425 17.9896 28.5083 17.0042 27.5 15.8125C26.8813 16.5229 26.3542 17.1875 25.5292 18.1958Z" fill="white"/>
</svg>
